<svg version="1.2" baseProfile="tiny" xmlns="http://www.w3.org/2000/svg" viewBox="0 0 164 50" overflow="visible"><path fill-rule="evenodd" fill="#14591D" d="M5.9.3h41.3c2 .6 3.4 1.9 3.9 3.9v41.3c-.6 2-1.9 3.4-3.9 3.9H5.9c-2-.6-3.4-1.9-3.9-3.9V4.2C2.5 2.2 3.8.9 5.9.3z"/><g fill="#FFF"><path d="M4.5 9.5H26v3.6h-8.7v27.1h-4.1V13.1H4.5V9.5zM30.1 40.3V9.5h18.4v3.6H34.3V23H47v3.6H34.3v13.6h-4.2z"/></g><g fill="#14591D"><path d="M63.3 18.8h-3.6V31H57V18.8h-3.6v-2.4h10v2.4zM71.8 31h-2.1l-.3-1.4h-.1c-.1.2-.3.4-.5.6s-.4.4-.6.5c-.2.1-.5.3-.8.4-.3.1-.6.1-.9.1-.4 0-.8-.1-1.2-.2-.4-.1-.7-.3-.9-.6-.3-.3-.5-.7-.6-1.1-.1-.5-.2-1-.2-1.7v-7.9h2.6V27c0 .7.1 1.2.4 1.5.3.3.6.4 1.1.4.3 0 .5-.1.7-.2.2-.1.4-.3.6-.5.2-.2.3-.4.4-.7s.1-.6.1-.9v-7h2.6V31zM77.9 19.5c.5 0 1 .1 1.5.2s.9.3 1.2.6c.3.3.6.6.8 1 .2.4.3.8.3 1.3v.5h-2.6c0-.5-.1-.9-.3-1.1-.2-.2-.5-.3-.9-.3s-.7.1-1 .3c-.2.2-.4.5-.4.8 0 .3.1.5.2.7.2.2.4.3.6.4s.6.2.9.3.7.2 1 .3c.3.1.7.2 1 .4s.6.3.9.6c.3.3.5.6.6.9.2.4.2.8.2 1.4 0 .7-.1 1.3-.3 1.7s-.5.8-.9 1.1c-.4.3-.8.5-1.3.6-.5.1-1.1.2-1.7.2-.6 0-1.2-.1-1.7-.3-.5-.2-.9-.4-1.3-.7-.4-.3-.6-.7-.8-1.1-.2-.4-.3-.9-.3-1.5v-.1-.1-.1h2.6v.1c0 .3.1.5.2.8.1.2.2.4.4.5.1.1.3.2.5.3.2.1.4.1.5.1.2 0 .3 0 .5-.1.2 0 .3-.1.5-.2.1-.1.3-.2.4-.4.1-.2.1-.3.1-.6s-.1-.5-.2-.7c-.2-.2-.4-.3-.6-.5l-.9-.3c-.3-.1-.7-.2-1-.3-.3-.1-.7-.2-1-.4-.3-.1-.6-.3-.9-.6s-.5-.5-.6-.9c-.2-.4-.2-.8-.2-1.4 0-.6.1-1.1.3-1.5.2-.4.5-.8.9-1.1.4-.3.8-.5 1.3-.6.4-.1 1-.2 1.5-.2zM88.9 31V16.4h8.6v2.4h-5.9v3.7h5v2.4h-5V31h-2.7zM102.1 17.9h-2.6v-2.3h2.6v2.3zm0 13.1h-2.6V19.8h2.6V31zM109.8 19.5c.4 0 .8.1 1.2.2.4.1.7.3.9.6s.5.7.6 1.1c.1.5.2 1 .2 1.7V31h-2.6v-7.2c0-.7-.1-1.2-.4-1.5-.3-.3-.6-.5-1.1-.5-.2 0-.5.1-.7.2-.2.1-.4.3-.6.5-.2.2-.3.4-.4.7s-.1.6-.1.9V31h-2.6V19.8h2.1l.3 1.4h.1c.1-.2.3-.4.5-.6.2-.2.4-.4.6-.5s.5-.3.8-.4.8-.2 1.2-.2zM118.6 19.5c1.3 0 2.3.3 2.9.9.6.6.9 1.4.9 2.4v5.5c0 .3.1.5.2.6.1.1.3.2.4.2h.5v1.8c-.1.1-.3.2-.6.2-.2.1-.6.1-1 .1-.5 0-.9-.1-1.3-.4-.3-.3-.6-.6-.7-1.1h-.1c-.2.2-.3.4-.5.6s-.4.3-.6.5-.5.2-.8.3c-.3.1-.6.1-1 .1-.3 0-.6 0-.9-.1-.3-.1-.6-.2-.9-.5-.3-.2-.5-.6-.7-1-.2-.4-.3-.9-.3-1.6 0-.8.1-1.4.4-1.9.3-.5.7-.9 1.1-1.2.5-.3 1.1-.5 1.8-.6.7-.1 1.4-.2 2.2-.2V23v-.5c0-.2-.1-.3-.2-.4-.1-.1-.2-.2-.4-.3-.2-.1-.4-.1-.6-.1-.3 0-.5 0-.7.1-.2.1-.3.2-.4.3s-.2.2-.2.4-.1.3-.1.4v.3h-2.5v-.5c0-.5.1-.9.3-1.3.2-.4.4-.7.8-1 .3-.3.7-.5 1.2-.6.7-.2 1.2-.3 1.8-.3zm1.2 6.5c-.4 0-.7 0-1.1.1-.4.1-.7.2-.9.3-.3.1-.5.3-.7.6-.2.2-.2.5-.2.9s.1.7.3.9c.2.2.5.3 1 .3.3 0 .6-.1.8-.2.2-.1.4-.3.5-.5.1-.2.2-.5.3-.8.1-.3.1-.6.1-.9V26zM130.2 19.5c.4 0 .8.1 1.2.2.4.1.7.3.9.6s.5.7.6 1.1c.1.5.2 1 .2 1.7V31h-2.6v-7.2c0-.7-.1-1.2-.4-1.5-.3-.3-.6-.5-1.1-.5-.2 0-.5.1-.7.2-.2.1-.4.3-.6.5-.2.2-.3.4-.4.7s-.1.6-.1.9V31h-2.6V19.8h2.1l.3 1.4h.1c.1-.2.3-.4.5-.6.2-.2.4-.4.6-.5s.5-.3.8-.4.9-.2 1.2-.2zM142.6 20.8l-4.4 8h4.5V31h-8v-1.1l4.4-8H135v-2.2h7.6v1.1zM147.8 19.5c1.3 0 2.3.3 2.9.9.6.6.9 1.4.9 2.4v5.5c0 .3.1.5.2.6.1.1.3.2.4.2h.5v1.8c-.1.1-.3.2-.6.2-.2.1-.6.1-1 .1-.5 0-.9-.1-1.3-.4-.3-.3-.6-.6-.7-1.1h-.1c-.2.2-.3.4-.5.6s-.4.3-.6.5-.5.2-.8.3c-.3.1-.6.1-1 .1-.3 0-.6 0-.9-.1-.3-.1-.6-.2-.9-.5-.3-.2-.5-.6-.7-1-.2-.4-.3-.9-.3-1.6 0-.8.1-1.4.4-1.9.3-.5.7-.9 1.1-1.2.5-.3 1.1-.5 1.8-.6.7-.1 1.4-.2 2.2-.2V23v-.5c0-.2-.1-.3-.2-.4-.1-.1-.2-.2-.4-.3-.2-.1-.4-.1-.6-.1-.3 0-.5 0-.7.1-.2.1-.3.2-.4.3s-.2.2-.2.4-.1.3-.1.4v.3H144v-.5c0-.5.1-.9.3-1.3.2-.4.4-.7.8-1 .3-.3.7-.5 1.2-.6.4-.2.9-.3 1.5-.3zM149 26c-.4 0-.7 0-1.1.1-.4.1-.7.2-.9.3-.3.1-.5.3-.7.6-.2.2-.2.5-.2.9s.1.7.3.9c.2.2.5.3 1 .3.3 0 .6-.1.8-.2.2-.1.4-.3.5-.5.1-.2.2-.5.3-.8.1-.3.1-.6.1-.9V26zM157.8 19.5c.5 0 1 .1 1.5.2s.9.3 1.2.6c.3.3.6.6.8 1 .2.4.3.8.3 1.3v.5H159c0-.5-.1-.9-.3-1.1-.2-.2-.5-.3-.9-.3s-.7.1-1 .3c-.2.2-.4.5-.4.8 0 .3.1.5.2.7.2.2.4.3.6.4l.9.3c.3.1.7.2 1 .3.3.1.7.2 1 .4s.6.3.9.6c.3.3.5.6.6.9.2.4.2.8.2 1.4 0 .7-.1 1.3-.3 1.7-.2.5-.5.8-.9 1.1s-.8.5-1.3.6c-.5.1-1.1.2-1.7.2-.6 0-1.2-.1-1.7-.3-.5-.2-.9-.4-1.3-.7-.4-.3-.6-.7-.8-1.1-.2-.4-.3-.9-.3-1.5v-.1-.1-.1h2.6v.1c0 .3.1.5.2.8.1.2.2.4.4.5.1.1.3.2.5.3s.4.1.5.1c.2 0 .3 0 .5-.1.2 0 .3-.1.5-.2.1-.1.3-.2.4-.4.1-.2.1-.3.1-.6s-.1-.5-.2-.7c-.2-.2-.4-.3-.6-.5l-.9-.3c-.3-.1-.7-.2-1-.3s-.7-.2-1-.4c-.3-.1-.6-.3-.9-.6-.3-.2-.5-.5-.6-.9s-.2-.8-.2-1.4c0-.6.1-1.1.3-1.5.2-.4.5-.8.9-1.1.4-.3.8-.5 1.3-.6.4-.1.9-.2 1.5-.2z"/></g></svg>