<svg xmlns="http://www.w3.org/2000/svg" width="512" height="512" shape-rendering="geometricPrecision" text-rendering="geometricPrecision" image-rendering="optimizeQuality" fill-rule="evenodd" clip-rule="evenodd"><path fill="#14591d" d="M40.5-.5h430c21.333 6 35 19.667 41 41v430c-6 21.333-19.667 35-41 41h-430c-21.333-6-35-19.667-41-41v-430c6-21.333 19.667-35 41-41z"/><path fill="#a1bca5" d="M168.5 140.5a1640.966 1640.966 0 0181-1v-34h-211v34c27.505-.331 54.838.002 82 1h-83v-36h213v36h-82z"/><path fill="#fdfdfd" d="M168.5 140.5v266h-48v-266a1681.792 1681.792 0 00-82-1v-34h211v34c-27.172-.331-54.172.002-81 1z"/><path fill="#84a789" d="M473.5 105.5h-183v301a22805.385 22805.385 0 01-1-302c61.502-.332 122.836.001 184 1z"/><path fill="#fefefe" d="M473.5 105.5v34h-136v99h120v34h-120v134h-47v-301h183z"/><path fill="#84a787" d="M473.5 139.5c-44.83.999-89.83 1.332-135 1v97c39.837-.332 79.504.001 119 1h-120v-99h136z"/><path fill="#66926b" d="M457.5 272.5a3539.447 3539.447 0 01-119 1c.332 44.503-.001 88.836-1 133v-134h120z"/></svg>